<svg xmlns="http://www.w3.org/2000/svg" viewBox="0 0 253.55 281.81"><g id="Layer_2" data-name="Layer 2"><g id="Layer_1-2" data-name="Layer 1"><path d="M61,172.07c-5.6,12.77-11.29,26.36-17.47,39.72-8.13,17.57-16.57,35-25.11,52.39-1.09,2.21-3.82,5.38-5.44,5.18-2.69-.32-5.47-2.66-7.49-4.82-1.83-2-2.68-4.84-4-7.28-2-3.7-2-7-.1-11.11,15.05-32.66,30.14-65.32,44.44-98.31C52.29,133,57,117.42,62.36,102.11c1.45-4.17,1.86-8.81,7.1-10.28,7.53-2.11,15-3,20.89,3.55,10.06,11.14,19.85,22.52,29.76,33.81,3.26-9.29,6.91-19.6,10.5-29.93,6.74-19.4,12.91-39,20.37-58.14,4-10.33,10.26-19.81,15.51-29.66.15-.29.57-.48.61-.77C168.69,1.57,176.24,1.31,183,.06c3.42-.64,8.85,4.19,9.5,8.59,6.56,43.92,20.17,85.92,33.77,128,10.27,31.8,18.18,64.35,27.07,96.59.37,1.32,0,2.83,0,6-2.63-3-4.54-4.68-5.9-6.74-18.15-27.6-32-57.31-43.13-88.35A862.91,862.91,0,0,1,174.14,38.47C157.38,94.52,136.87,148.54,115,202.78c22.82-9.41,45.4-17.27,69.1-21.29l1.06,1.4c-1.39,1.55-2.52,3.5-4.21,4.58C154.44,204.29,127.81,221,101.3,237.8a18.89,18.89,0,0,0-5.65,5.88c-7,11.34-13.54,23-20.76,34.18-3.7,5.75-7.41,5-11.27-.8-3.6-5.4-3.85-10.41-.7-16.16,4.71-8.61,9-17.46,13.25-26.32,1.52-3.18,2.08-6.84,3.66-10s4.34-5.73,5.72-8.93q9.78-22.59,19-45.38c3.77-9.27,7.17-18.68,11-28.68C102.41,138,91,131.09,80.75,121.47L70.49,149.3c6.38,6.66,12.73,13.14,18.87,19.81,1,1.12,1.15,3.06,1.7,4.62-1.65.39-3.34,1.23-4.94,1.08C78,174.07,70,173.07,61,172.07Z"/></g></g></svg>