<svg xmlns="http://www.w3.org/2000/svg" viewBox="0 0 298.71 370.73"><g id="Layer_2" data-name="Layer 2"><g id="Layer_1-2" data-name="Layer 1"><path d="M173.82,370.73c-3.39-1-5.14-3.28-6.28-6.64Q114.41,207.82,61,51.66c-6.32-18.3-6.47-34.75,6-50.21L71.25,0c.18.15.34.4.55.44C88.68,4.13,99.2,14.55,104.73,30.8q54,158.78,108.16,317.45c1.18,3.46,1.41,6.46-.81,9.44ZM73.39,13.27c-5.65,9.06-6.45,18.21-3.14,27.92Q93.1,108,115.84,174.94c.29.86.75,1.67,1.57,3.45,1.52-3.46,2.57-6.14,3.83-8.7,2.26-4.57,5.19-5.58,9.78-3.35,2.61,1.26,5.1,2.76,7.65,4.16a8.82,8.82,0,0,0-.55-4.4q-6.84-20-13.67-40.09-15.83-46.49-31.65-93C89.54,23.45,83.28,16.88,73.39,13.27ZM200.12,348.9,161.58,235.77l-22.23,7.58,38.53,113.13Zm-42.33-125c-4.15-12.18-8.2-24.11-12.3-36a3.22,3.22,0,0,0-1.37-1.63c-4.56-2.49-9.17-4.91-14.29-7.62-2.53,5.45-4.76,10-6.75,14.73a5.54,5.54,0,0,0,.26,3.52c2.75,8.3,5.61,16.57,8.44,24.84q1.66,4.91,3.33,9.79l5.63-1.92c-1.82-5.34-3.58-10.41-5.26-15.5-1.45-4.36-.08-7.78,3.47-8.91s6.4.78,7.85,5c1.78,5.17,3.53,10.35,5.34,15.68Z"/><path d="M130,.39c2.93,1,5.94,1.69,8.77,2.88C151,8.37,159,17.44,163.3,29.94q40.45,116.64,81,233.25c9.8,28.2,19.55,56.41,29.46,84.57,1.21,3.45,1.42,6.46-.74,9.46l-38.19,13.27a9.05,9.05,0,0,1-6.2-6.24q-55.41-159.85-111-319.64a41.47,41.47,0,0,1,2.85-34.72c1.52-2.81,3.51-5.36,5.28-8Zm68.3,170,.79-.84c-.36-1-.72-2-1.07-3.07L169.38,84c-5.95-17.11-11.84-34.24-17.86-51.33-3.31-9.39-9.75-15.67-19.28-19a30.28,30.28,0,0,0-3.1,27.47q23.34,67.08,46.64,134.19c.26.75.65,1.46,1.51,3.41,1.63-3.88,2.68-6.81,4.06-9.57,1.9-3.8,4.86-4.86,8.71-3.12C192.9,167.32,195.58,168.94,198.33,170.41ZM261,348.5,221.79,235.61l-22.19,7.71,39.22,112.89ZM189.73,178.78c-2.31,5-4.39,9.13-6.1,13.4a7.65,7.65,0,0,0-.24,4.86c3.55,10.66,7.31,21.25,11,31.86.31.9.78,1.75,1.15,2.57L201,229.6c-1.77-5.11-3.5-10-5.18-15a11.61,11.61,0,0,1-.9-3.6,5.66,5.66,0,0,1,4.6-6c3-.76,5.85.87,7,4.12,2,5.47,3.85,11,5.74,16.44l5.65-2c-4.15-11.93-8.18-23.6-12.29-35.25a4.29,4.29,0,0,0-1.71-2.25C199.42,183.7,194.86,181.42,189.73,178.78Z"/><path d="M2.79,352.46C1,347.55,4.28,344.33,7,340.75c-3.6-3.43-9.85-5.78-5.54-12.24,2.34-3.51,5.39-2.84,12.81,2.34l153.11-199.6c-5.6-5.43-5.69-6.83-.81-13.2,10.71-14,21.43-27.95,32.44-42.3L192.9,73.9l-2.41,3.15c-10,13-19.86,26-30,38.91-1.27,1.62-3.48,3.31-5.34,3.42s-4.68-1.39-5.31-2.92a8.18,8.18,0,0,1,.66-6.78c5.87-8.24,12.2-16.15,18.36-24.18q8.33-10.86,16.64-21.72c3.28-4.26,5.62-4.69,10.18-2,5.36,3.19,11.25,2.35,15.65-2.24,3.33-3.48,6-3.75,9.78-.89,4.09,3.08,8.13,6.2,12.16,9.35,4.2,3.28,4.57,6.22,1.27,10.52q-22.22,29-44.48,58c-4.64,6-6.19,6.34-12.81,2.29L24.18,338.45c3.45,3.34,9.78,5.64,5.41,12.12-2.33,3.46-5.3,2.81-13-2.42-2.79,3.11-4.84,7.73-10.26,7.05ZM182.11,126.88l40-52.13-4.39-3.37-40,52.13Z"/><path d="M59.37,331c-1.84-4.94,1.55-8.12,4.3-11.68-3.53-3.47-9.83-5.83-5.43-12.28,2.37-3.47,5.31-2.8,12.79,2.44L225.79,111c-.36-.36-.74-.8-1.18-1.18-3.88-3.42-4.14-6.1-.88-10.29q15.66-20.13,31.35-40.22,7.38-9.47,14.78-18.91c3.31-4.21,6.23-4.56,10.51-1.27,4.05,3.12,8.1,6.26,12.09,9.45,3.59,2.86,4,5.59,1.67,9.41-3.62,5.85-2.93,11.45,2,16.23,3.22,3.14,3.47,5.89.64,9.53q-17.72,22.8-35.51,45.53c-2.72,3.47-6.23,4.15-9.09,1.94s-3.06-5.78-.35-9.26c9.81-12.64,19.54-25.35,29.59-37.79,2.78-3.43,3.72-6.16,0-9.63-.77.9-1.66,1.85-2.45,2.86Q263.63,97.1,248.3,116.76c-4.51,5.77-6.37,6.07-12.62,1.95L80.92,317.12c3.29,3.36,9.72,5.65,5.3,12.12-2.38,3.49-5.42,2.82-13-2.49-2.81,3.1-4.94,7.65-10.33,7ZM240.51,106.82,280.92,55l-4.36-3.4-40.41,51.8Z"/></g></g></svg>